<?xml version="1.0" encoding="UTF-8"?>
<svg version="1.1" xmlns="http://www.w3.org/2000/svg" width="270" height="180">
<path d="M0 0 C89.1 0 178.2 0 270 0 C270 59.4 270 118.8 270 180 C180.9 180 91.8 180 0 180 C0 120.6 0 61.2 0 0 Z " fill="#FDFCFC" transform="translate(0,0)"/>
<path d="M0 0 C1 1 2 2 3 3 C5.63745869 3.83259898 8.29851214 4.38998661 11 5 C12 6 12 6 12.125 9.1875 C12 13 12 13 11.3125 16.0625 C10.6231012 22.5428487 15.87185893 27.80891749 19.4765625 32.828125 C22.2376966 36.76451105 22.68596732 40.2605894 22 45 C20.66666667 47 19.33333333 49 18 51 C16.72614533 57.4850783 18.99734602 61.3849834 22.08056641 67.07641602 C25.16824872 72.92728881 27.06609434 78.9893012 28.86962891 85.33911133 C30.58142091 91.21990511 32.57768257 96.57768257 37 101 C18.52 101 0.04 101 -19 101 C-19 68.99 -19 36.98 -19 4 C-15.7 2.68 -12.4 1.36 -9 0 C-5.85000502 -1.57499749 -3.36459118 -0.70833498 0 0 Z " fill="#FEFDFD" transform="translate(19,79)"/>
<path d="M0 0 C1.92578125 1.08984375 1.92578125 1.08984375 4.73828125 3.08984375 C4.73828125 3.74984375 4.73828125 4.40984375 4.73828125 5.08984375 C5.39828125 5.08984375 6.05828125 5.08984375 6.73828125 5.08984375 C6.73828125 4.42984375 6.73828125 3.76984375 6.73828125 3.08984375 C10.85132308 -0.49588503 13.97487498 -1.56892891 19.4296875 -1.29296875 C24.74951195 -0.41083204 28.46899101 1.49177487 31.82788086 5.72070312 C34.06534005 9.66663754 34.20334431 11.9535285 34.12890625 16.45703125 C34.12324646 17.13661896 34.11758667 17.81620667 34.11175537 18.51638794 C34.08953476 20.66661924 34.03937323 22.81512449 33.98828125 24.96484375 C33.96819739 26.43096535 33.94994993 27.89711333 33.93359375 29.36328125 C33.88971936 32.93935383 33.82079568 36.51443006 33.73828125 40.08984375 C28.03076172 40.31152344 28.03076172 40.31152344 25.3984375 38.31640625 C22.90445477 33.46927746 23.17910765 28.84031095 23.17578125 23.46484375 C23.1668566 21.38922407 23.14529414 19.3136093 23.109375 17.23828125 C23.1086499 16.32224121 23.1079248 15.40620117 23.10717773 14.46240234 C22.91994527 12.04245078 22.91994527 12.04245078 21.40258789 10.29541016 C18.79016277 8.40305938 16.85905668 8.63473067 13.73828125 9.08984375 C10.5120717 12.2737096 10.3307788 14.96794749 10.2265625 19.38671875 C10.19111328 20.59199219 10.15566406 21.79726563 10.11914062 23.0390625 C10.09658203 24.29332031 10.07402344 25.54757813 10.05078125 26.83984375 C10.01662109 28.10957031 9.98246094 29.37929687 9.94726562 30.6875 C9.86479124 33.82152649 9.79563641 36.9552733 9.73828125 40.08984375 C6.98828125 40.40234375 6.98828125 40.40234375 3.73828125 40.08984375 C0.98061173 37.57907381 -0.10794868 35.89617381 -0.80761719 32.22729492 C-0.82856445 31.20611572 -0.84951172 30.18493652 -0.87109375 29.1328125 C-0.90332031 28.02099609 -0.93554688 26.90917969 -0.96875 25.76367188 C-0.98292969 24.61318359 -0.99710938 23.46269531 -1.01171875 22.27734375 C-1.04136719 21.10751953 -1.07101563 19.93769531 -1.1015625 18.73242188 C-1.17211584 15.85149366 -1.22488604 12.97136797 -1.26171875 10.08984375 C-2.69582243 9.8403037 -4.13431947 9.61591733 -5.57421875 9.40234375 C-6.37472656 9.27472656 -7.17523438 9.14710937 -8 9.015625 C-10.28421312 8.90404239 -10.28421312 8.90404239 -12.02270508 10.16918945 C-13.81858173 12.95306366 -13.69889487 15.21302826 -13.7734375 18.5078125 C-13.80888672 19.76142578 -13.84433594 21.01503906 -13.88085938 22.30664062 C-13.91469727 24.27213867 -13.91469727 24.27213867 -13.94921875 26.27734375 C-13.98239541 27.61266388 -14.01688541 28.94795207 -14.05273438 30.28320312 C-14.13533932 33.55199879 -14.20445104 36.82052187 -14.26171875 40.08984375 C-17.8021326 40.41169955 -19.64666281 40.52298625 -22.60351562 38.44067383 C-24.63242774 35.56429062 -24.77689359 33.97491836 -24.79296875 30.4765625 C-24.798125 29.39310547 -24.80328125 28.30964844 -24.80859375 27.19335938 C-24.793125 26.06607422 -24.77765625 24.93878906 -24.76171875 23.77734375 C-24.7771875 22.66166016 -24.79265625 21.54597656 -24.80859375 20.39648438 C-24.77201244 12.68240117 -23.83099532 8.2222123 -18.7265625 2.3125 C-13.18813789 -1.89443634 -6.49759326 -2.61474824 0 0 Z " fill="#070707" transform="translate(132.26171875,35.91015625)"/>
<path d="M0 0 C1.46140656 1.27078831 2.92195164 2.54630847 4.30078125 3.90625 C6.64912105 5.41782504 8.30446203 5.16295645 11.0625 5 C15.08428772 4.77589436 15.66242273 4.74509472 19.0625 7.3125 C21.78538 11.08939807 22.09419727 13.87573065 22.23950195 18.4453125 C22.53423148 26.99345463 24.0597313 33.54804413 28.15234375 41.13671875 C30.56998594 45.6536659 31.67120345 48.72625857 31 54 C30.505 55.134375 30.01 56.26875 29.5 57.4375 C25.29920645 67.41438467 29.02372163 82.78975309 32.20703125 92.79296875 C35.20589595 101.05469333 35.20589595 101.05469333 41 107 C45.76307238 107.52256729 49.78465759 107.5480956 54.1875 105.5625 C58.6857696 101.46407659 62.07747022 96.65208165 65.63671875 91.7421875 C66.14847656 91.04351562 66.66023438 90.34484375 67.1875 89.625 C67.63480469 88.99851562 68.08210938 88.37203125 68.54296875 87.7265625 C70 86 70 86 72.1796875 84.64453125 C74.31296944 83.09640752 74.31296944 83.09640752 74.21484375 80.22265625 C74.07755859 78.65837891 74.07755859 78.65837891 73.9375 77.0625 C73.75010232 71.30869714 73.75010232 71.30869714 76.125 68.375 C79.04385467 66.97902603 81.88351438 65.86971692 85 65 C83.15653006 66.94049468 81.68543493 68.1755712 79.3125 69.5 C76.73824391 71.7424516 76.73824391 71.7424516 76.890625 74.52734375 C77.00347588 76.43811429 77.17501771 78.34649136 77.41015625 80.24609375 C76.88843839 83.74905652 75.41341784 84.4789002 72.66870117 86.51538086 C68.84275918 89.91926575 66.71434421 95.03221028 64.3203125 99.49414062 C60.41787664 106.32907553 56.30243485 108.56585505 49 111 C43.85873219 111.55710332 39.51180772 111.96498365 35.0625 109.125 C31.47319942 103.68666579 29.58517527 97.83268863 27.59375 91.6640625 C27.08356773 90.08846575 26.57314638 88.5129464 26.0625 86.9375 C25.80911865 86.14915771 25.5557373 85.36081543 25.29467773 84.54858398 C23.91768015 80.3746559 22.43732658 76.64153762 20.125 72.875 C17.55967164 68.63266086 17.27179254 65.93562837 18 61 C19.33333333 59 20.66666667 57 22 55 C23.30419763 48.00475819 20.73776746 44.25877825 16.82421875 38.515625 C15.68953945 36.95088523 14.52487336 35.40691849 13.31640625 33.8984375 C11.35800279 31.07415239 11.24988969 28.3735108 11 25 C11.33 24.34 11.66 23.68 12 23 C12.04022391 20.6670134 12.04320247 18.33293334 12 16 C11.39671875 15.81824219 10.7934375 15.63648437 10.171875 15.44921875 C3.38024231 13.31314073 3.38024231 13.31314073 0.875 11.25 C-1.09302826 9.67386643 -1.09302826 9.67386643 -4.375 10.125 C-7.96352038 10.99119457 -10.73013838 12.3287374 -14 14 C-15.32 14 -16.64 14 -18 14 C-18 10.7 -18 7.4 -18 4 C-6.72897196 -1.00934579 -6.72897196 -1.00934579 0 0 Z " fill="#D81D44" transform="translate(18,69)"/>
<path d="M0 0 C4.39063739 2.15540381 7.47901962 4.79836603 10 9 C11.13371444 13.26307692 11.43004629 16.73673902 10 20.9375 C6.4496368 24.59881205 1.97994396 24.9517269 -2.96484375 25.1953125 C-4.27582031 25.17210938 -5.58679688 25.14890625 -6.9375 25.125 C-7.62134766 25.11597656 -8.30519531 25.10695313 -9.00976562 25.09765625 C-10.67333287 25.07438958 -12.33671631 25.03853167 -14 25 C-12.75023244 28.65316671 -12.32901247 29.78065836 -9 32 C-2.8241097 32.60600367 3.25823081 32.55189742 9 30 C9.48586118 36.31619537 9.48586118 36.31619537 7.3125 39.375 C2.80742309 42.54072972 -2.6300241 42.64439711 -8 42 C-14.86177971 40.33493135 -18.97761514 37.75258502 -22.94140625 31.90234375 C-26.26787393 25.92452175 -25.71335353 18.67793609 -23.9375 12.25 C-21.89855177 6.76425834 -17.99994203 3.80741849 -13.11328125 0.86328125 C-8.91895372 -0.85011318 -4.43563869 -0.52146115 0 0 Z " fill="#090909" transform="translate(228,35)"/>
<path d="M0 0 C4.3841103 3.05868161 7.70091308 6.45389705 8.6875 11.875 C8.92429554 14.83063891 8.91834496 17.7857572 8.9375 20.75 C8.958125 21.54019531 8.97875 22.33039062 9 23.14453125 C9.03324271 28.1392489 8.4867601 31.56492428 5.6875 35.875 C-0.24637843 40.44903129 -5.00640783 41.5325483 -12.3125 40.875 C-17.97399648 39.17655106 -21.21183888 36.94880911 -24.3125 31.875 C-24.99730854 28.71819966 -25.04491127 26.02553103 -24.3125 22.875 C-21.02091644 18.5776548 -17.77225372 16.43403494 -12.5625 15.25 C-8.76678297 14.81203265 -5.1319728 14.80914702 -1.3125 14.875 C-2.40034968 11.62516865 -2.40034968 11.62516865 -4.3125 8.875 C-6.41279986 8.722677 -8.51937139 8.65310628 -10.625 8.625 C-12.35169922 8.58632813 -12.35169922 8.58632813 -14.11328125 8.546875 C-17.57816351 8.90224754 -18.7456305 9.64293957 -21.3125 11.875 C-21.9725 11.875 -22.6325 11.875 -23.3125 11.875 C-23.07349616 5.78040206 -23.07349616 5.78040206 -21.015625 3.33203125 C-14.80395831 -1.91098445 -7.59048352 -2.57790006 0 0 Z " fill="#0A0A0A" transform="translate(91.3125,36.125)"/>
<path d="M0 0 C2.72263564 0.34843254 5.24979571 0.625 8 0.625 C8.99 0.625 9.98 0.625 11 0.625 C12.423125 0.2846875 12.423125 0.2846875 13.875 -0.0625 C17.67130946 -0.44213095 19.02476046 0.32981521 22 2.625 C24.21806911 7.06113822 23.52460522 12.80817023 23 17.625 C20.875 20.9375 20.875 20.9375 18 22.625 C13.83198845 23.42312987 12.30066901 22.80317423 8.625 20.625 C7.75875 19.965 6.8925 19.305 6 18.625 C5.71125 19.264375 5.4225 19.90375 5.125 20.5625 C4 22.625 4 22.625 2 23.625 C0.45976004 23.69450541 -1.08334988 23.70952357 -2.625 23.6875 C-3.85089844 23.67396484 -3.85089844 23.67396484 -5.1015625 23.66015625 C-5.72804688 23.64855469 -6.35453125 23.63695313 -7 23.625 C-13.08857462 14.03549498 -13.08857462 14.03549498 -12 7.625 C-8.92208541 1.99984575 -6.56249393 -0.87890544 0 0 Z " fill="#FCE1E5" transform="translate(98,92.375)"/>
<path d="M0 0 C1.4375 1.875 1.4375 1.875 1.4375 7.875 C-4.5025 8.37 -4.5025 8.37 -10.5625 8.875 C-10.8925 11.845 -11.2225 14.815 -11.5625 17.875 C-7.9325 17.875 -4.3025 17.875 -0.5625 17.875 C-0.5625 22.875 -0.5625 22.875 -1.5625 24.6875 C-3.5625 25.875 -3.5625 25.875 -11.5625 25.875 C-11.5625 34.785 -11.5625 43.695 -11.5625 52.875 C-18.5625 52.875 -18.5625 52.875 -20.47177124 51.62931824 C-21.77772095 49.52884057 -21.96434136 48.27186905 -22.01416016 45.8059082 C-22.0365274 44.99108475 -22.05889465 44.17626129 -22.0819397 43.33674622 C-22.08841522 42.45862778 -22.09489075 41.58050934 -22.1015625 40.67578125 C-22.11391937 39.76676559 -22.12627625 38.85774994 -22.13900757 37.92118835 C-22.1585839 35.99545734 -22.16980769 34.0696261 -22.17333984 32.14379883 C-22.18737031 29.21457697 -22.25461935 26.28968584 -22.32421875 23.36132812 C-22.33662496 21.48699806 -22.34584052 19.61264364 -22.3515625 17.73828125 C-22.37828033 16.87028397 -22.40499817 16.00228668 -22.43252563 15.10798645 C-22.36447125 8.9333421 -20.58381845 5.83802849 -16.35897827 1.37590027 C-11.98411596 -2.27915758 -5.05238445 -2.21812 0 0 Z " fill="#080808" transform="translate(268.5625,23.125)"/>
<path d="M0 0 C1.875 1.5 1.875 1.5 3 3 C3.86625 2.484375 4.7325 1.96875 5.625 1.4375 C9.45079771 -0.19200643 11.07506853 -0.22108979 15 1 C17.52737004 2.91731521 17.9716847 3.91505409 19 7 C19.40258259 11.56776402 19.44835717 15.70767638 17.9375 20.0625 C15.12349611 22.87650389 12.90663966 22.93146246 9 23 C6.8125 22 6.8125 22 5 21 C2.20435265 21.38587397 2.20435265 21.38587397 0 23 C-5.68495163 23.5573482 -8.57083191 22.58551703 -13 19 C-14.97823694 15.04352612 -14.56487734 10.3017582 -14 6 C-10.12241083 0.76001463 -6.40599397 -0.53383283 0 0 Z " fill="#FCEDEF" transform="translate(248,92)"/>
<path d="M0 0 C4.35696056 5.39433212 6.74287675 9.94267086 6 17 C5.505 18.134375 5.01 19.26875 4.5 20.4375 C0.29920645 30.41438467 4.02372163 45.78975309 7.20703125 55.79296875 C10.20589595 64.05469333 10.20589595 64.05469333 16 70 C20.76307238 70.52256729 24.78465759 70.5480956 29.1875 68.5625 C33.6857696 64.46407659 37.07747022 59.65208165 40.63671875 54.7421875 C41.14847656 54.04351562 41.66023438 53.34484375 42.1875 52.625 C42.63480469 51.99851563 43.08210938 51.37203125 43.54296875 50.7265625 C45 49 45 49 47.1796875 47.64453125 C49.31296944 46.09640752 49.31296944 46.09640752 49.21484375 43.22265625 C49.12332031 42.17980469 49.03179687 41.13695312 48.9375 40.0625 C48.75010232 34.30869714 48.75010232 34.30869714 51.125 31.375 C54.04385467 29.97902603 56.88351438 28.86971692 60 28 C58.15653006 29.94049468 56.68543493 31.1755712 54.3125 32.5 C51.73824391 34.7424516 51.73824391 34.7424516 51.890625 37.52734375 C52.00347588 39.43811429 52.17501771 41.34649136 52.41015625 43.24609375 C51.88843839 46.74905652 50.41341784 47.4789002 47.66870117 49.51538086 C43.84275918 52.91926575 41.71434421 58.03221028 39.3203125 62.49414062 C35.41787664 69.32907553 31.30243485 71.56585505 24 74 C18.85873219 74.55710332 14.51180772 74.96498365 10.0625 72.125 C6.47319942 66.68666579 4.58517527 60.83268863 2.59375 54.6640625 C2.08356773 53.08846575 1.57314638 51.5129464 1.0625 49.9375 C0.80911865 49.14915771 0.5557373 48.36081543 0.29467773 47.54858398 C-1.08231985 43.3746559 -2.56267342 39.64153762 -4.875 35.875 C-7.44032836 31.63266086 -7.72820746 28.93562837 -7 24 C-5.66666667 22 -4.33333333 20 -3 18 C-2.16554905 11.5330051 -3.70476691 7.53128412 -7 2 C-4.5625 2.375 -4.5625 2.375 -2 3 C-1.67 3.66 -1.34 4.32 -1 5 C-0.67 3.35 -0.34 1.7 0 0 Z " fill="#D11F45" transform="translate(43,106)"/>
<path d="M0 0 C1.82421875 1.32421875 1.82421875 1.32421875 3 3 C3.1875 6.1875 3.1875 6.1875 3 9 C1.95199219 9.05607422 1.95199219 9.05607422 0.8828125 9.11328125 C-0.48230469 9.21189453 -0.48230469 9.21189453 -1.875 9.3125 C-3.23238281 9.39951172 -3.23238281 9.39951172 -4.6171875 9.48828125 C-7.36221601 9.7882039 -7.36221601 9.7882039 -9 13 C-9.36887189 15.90644244 -9.36887189 15.90644244 -9.4140625 19.19921875 C-9.47207031 21.01196289 -9.47207031 21.01196289 -9.53125 22.86132812 C-9.57765625 24.7552832 -9.57765625 24.7552832 -9.625 26.6875 C-9.68300781 28.59885742 -9.68300781 28.59885742 -9.7421875 30.54882812 C-9.83657686 33.69907292 -9.9221583 36.84930991 -10 40 C-15.625 40.25 -15.625 40.25 -19 38 C-20.6505009 33.04849729 -20.26835933 27.9350573 -20.3125 22.75 C-20.34150391 21.62980469 -20.37050781 20.50960937 -20.40039062 19.35546875 C-20.45187848 12.64620507 -20.05428899 8.42824248 -16 3 C-11.7066218 -1.03317346 -5.58469465 -0.88179389 0 0 Z " fill="#070707" transform="translate(196,36)"/>
<path d="M0 0 C0.99 0.33 1.98 0.66 3 1 C3.33 8.59 3.66 16.18 4 24 C4.99 24.33 5.98 24.66 7 25 C7 26.32 7 27.64 7 29 C4.1875 29.25 4.1875 29.25 1 29 C-2.07046565 26.16126761 -2.40124649 23.39696909 -2.61914062 19.31640625 C-2.64169922 18.63449219 -2.66425781 17.95257813 -2.6875 17.25 C-2.73874023 16.20392578 -2.73874023 16.20392578 -2.79101562 15.13671875 C-2.87308295 13.42502892 -2.93822919 11.7125424 -3 10 C-3.33 10.99 -3.66 11.98 -4 13 C-4.804375 12.979375 -5.60875 12.95875 -6.4375 12.9375 C-8.93354885 12.70366379 -8.93354885 12.70366379 -10 14 C-10.23653523 16.52596259 -10.42173692 19.03107207 -10.5625 21.5625 C-10.60568359 22.27341797 -10.64886719 22.98433594 -10.69335938 23.71679688 C-10.79971777 25.47761912 -10.90038846 27.2387832 -11 29 C-12.32 28.67 -13.64 28.34 -15 28 C-15.10845031 25.43635517 -15.18749744 22.87733721 -15.25 20.3125 C-15.28351563 19.59126953 -15.31703125 18.87003906 -15.3515625 18.12695312 C-15.42178989 14.28200351 -15.23270206 12.39191927 -13.21875 9 C-11 7 -11 7 -7.25 6.6875 C-6.1775 6.790625 -5.105 6.89375 -4 7 C-4 6.34 -4 5.68 -4 5 C-3.34 5 -2.68 5 -2 5 C-1.855625 4.360625 -1.71125 3.72125 -1.5625 3.0625 C-1 1 -1 1 0 0 Z " fill="#D01D47" transform="translate(225,85)"/>
<path d="M0 0 C2.475 0.495 2.475 0.495 5 1 C5.33 2.98 5.66 4.96 6 7 C6.721875 6.7525 7.44375 6.505 8.1875 6.25 C11 6 11 6 13.75 7.8125 C16.78930726 10.76738206 16.98333449 11.36937722 17.09765625 15.6953125 C17.09100493 17.17190652 17.07907574 18.64848404 17.0625 20.125 C17.05798828 20.87910156 17.05347656 21.63320312 17.04882812 22.41015625 C17.03703499 24.27347127 17.01909942 26.13674555 17 28 C15.35 27.67 13.7 27.34 12 27 C11.67 22.38 11.34 17.76 11 13 C9.68 12.67 8.36 12.34 7 12 C5.00383446 13.99616554 5.59016573 17.81701963 5.4375 20.5625 C5.39431641 21.27341797 5.35113281 21.98433594 5.30664062 22.71679688 C5.20028223 24.47761912 5.09961154 26.2387832 5 28 C3.68 28 2.36 28 1 28 C-0.35700647 25.28598706 -0.1123861 23.15153684 -0.09765625 20.1171875 C-0.09443359 18.95058594 -0.09121094 17.78398438 -0.08789062 16.58203125 C-0.07951172 15.35871094 -0.07113281 14.13539062 -0.0625 12.875 C-0.05798828 11.64394531 -0.05347656 10.41289063 -0.04882812 9.14453125 C-0.0370133 6.09630608 -0.02054028 3.04817686 0 0 Z " fill="#CA294C" transform="translate(66,86)"/>
<path d="M0 0 C0.66 0.33 1.32 0.66 2 1 C1.4225 1.30550781 0.845 1.61101562 0.25 1.92578125 C-2.22542247 3.45143225 -4.09952073 4.78699747 -6 7 C-6.35177296 9.93430125 -6.15021414 12.40090026 -5.6953125 15.31640625 C-6 18 -6 18 -8.65625 20.2734375 C-9.20684082 20.68182861 -9.75743164 21.09021973 -10.32470703 21.51098633 C-14.15505451 24.91542954 -16.28397404 30.02907587 -18.6796875 34.49414062 C-22.58212336 41.32907553 -26.69756515 43.56585505 -34 46 C-39.14126781 46.55710332 -43.48819228 46.96498365 -47.9375 44.125 C-52.7724532 36.79931334 -54.8825345 28.43777921 -57 20 C-55.68 19.34 -54.36 18.68 -53 18 C-52.85304688 18.73863281 -52.70609375 19.47726563 -52.5546875 20.23828125 C-50.86906532 27.862331 -48.38355717 34.49182181 -44 41 C-40.27856198 42.86071901 -36.06158064 42.42687401 -32 42 C-25.30521701 38.98078414 -21.55651275 32.52664527 -17.36328125 26.7421875 C-16.85152344 26.04351562 -16.33976562 25.34484375 -15.8125 24.625 C-15.14154297 23.68527344 -15.14154297 23.68527344 -14.45703125 22.7265625 C-13 21 -13 21 -10.8203125 19.64453125 C-8.68703056 18.09640752 -8.68703056 18.09640752 -8.78515625 15.22265625 C-8.87667969 14.17980469 -8.96820313 13.13695312 -9.0625 12.0625 C-9.26381109 6.3077796 -9.26381109 6.3077796 -6.75 3.375 C-5.38875 2.694375 -5.38875 2.694375 -4 2 C-3.278125 1.566875 -2.55625 1.13375 -1.8125 0.6875 C-1.214375 0.460625 -0.61625 0.23375 0 0 Z " fill="#C62C50" transform="translate(101,134)"/>
<path d="M0 0 C2.52737004 1.91731521 2.9716847 2.91505409 4 6 C4.40258259 10.56776402 4.44835717 14.70767638 2.9375 19.0625 C1 21 1 21 -2.375 22 C-6.41199556 22 -8.02468631 21.71278601 -11 19 C-12.125 16.125 -12.125 16.125 -12 13 C-9.9375 10.125 -9.9375 10.125 -7 8 C-3.6875 7.6875 -3.6875 7.6875 -1 8 C-1.33 7.01 -1.66 6.02 -2 5 C-6.65052872 4.73067479 -6.65052872 4.73067479 -11 6 C-10.51812367 1.42217484 -10.51812367 1.42217484 -8.3125 -0.375 C-5.19201385 -1.21837464 -3.10081746 -0.85767291 0 0 Z " fill="#C4314E" transform="translate(263,93)"/>
<path d="M0 0 C2.90622034 2.23636556 3.8910046 3.41142485 4.56640625 7.05859375 C4.55591511 16.13342644 4.55591511 16.13342644 1.875 20.3125 C-1.49892681 22.29284835 -3.15452292 22.65454929 -7 22 C-9.375 21 -9.375 21 -11 19 C-11.33686831 16.24528656 -11.18319242 13.7936844 -11 11 C-7.27034861 8.96564469 -5.33094958 8 -1 8 C-1.33 7.01 -1.66 6.02 -2 5 C-5.34252724 4.92572162 -7.8035914 4.93453047 -11 6 C-10.63680051 3.3668037 -10.14494976 2.15568678 -8.3125 0.1875 C-5.09168663 -1.46643119 -3.41804519 -1.06813912 0 0 Z " fill="#CA3A58" transform="translate(117,93)"/>
<path d="M0 0 C2.475 0.495 2.475 0.495 5 1 C5.33 2.98 5.66 4.96 6 7 C6.721875 6.7525 7.44375 6.505 8.1875 6.25 C11 6 11 6 13.65625 7.40625 C16.62466186 10.69129246 16.52586792 12.46382637 16.43945312 16.75 C16.39755859 17.575 16.35566406 18.4 16.3125 19.25 C16.28994141 20.09046875 16.26738281 20.9309375 16.24414062 21.796875 C16.18537714 23.86534964 16.09569885 25.93290488 16 28 C14.68 27.67 13.36 27.34 12 27 C11.67 22.38 11.34 17.76 11 13 C9.68 12.67 8.36 12.34 7 12 C5.00383446 13.99616554 5.59016573 17.81701963 5.4375 20.5625 C5.39431641 21.27341797 5.35113281 21.98433594 5.30664062 22.71679688 C5.20028223 24.47761912 5.09961154 26.2387832 5 28 C3.68 28 2.36 28 1 28 C-0.35700647 25.28598706 -0.1123861 23.15153684 -0.09765625 20.1171875 C-0.09443359 18.95058594 -0.09121094 17.78398438 -0.08789062 16.58203125 C-0.07951172 15.35871094 -0.07113281 14.13539062 -0.0625 12.875 C-0.05798828 11.64394531 -0.05347656 10.41289063 -0.04882812 9.14453125 C-0.0370133 6.09630608 -0.02054028 3.04817686 0 0 Z " fill="#D12146" transform="translate(150,86)"/>
<path d="M0 0 C1.18722656 -0.05607422 1.18722656 -0.05607422 2.3984375 -0.11328125 C4.625 0.3125 4.625 0.3125 6.3828125 1.89453125 C8.04705584 5.13404895 8.09422688 7.68127206 8.125 11.3125 C8.1559375 12.529375 8.186875 13.74625 8.21875 15 C7.625 18.3125 7.625 18.3125 5.3203125 20.75390625 C2.625 22.3125 2.625 22.3125 -1 22.25 C-5.91785714 20.88392857 -5.91785714 20.88392857 -7.375 18.3125 C-7.875 14.8125 -7.875 14.8125 -7.375 11.3125 C-4.56604748 8.75139623 -2.85093344 8.33943963 0.9375 8.125 C1.824375 8.186875 2.71125 8.24875 3.625 8.3125 C2.965 7.3225 2.305 6.3325 1.625 5.3125 C-1.45421132 5.05589906 -3.58636993 4.91818496 -6.375 6.3125 C-5.2710741 0.16205568 -5.2710741 0.16205568 0 0 Z " fill="#CA294E" transform="translate(185.375,92.6875)"/>
<path d="M0 0 C2.5 0.3125 2.5 0.3125 5 1 C5.33 1.66 5.66 2.32 6 3 C4.7934375 3.6496875 4.7934375 3.6496875 3.5625 4.3125 C0.72153646 5.80474002 0.72153646 5.80474002 0 9 C2.31 9 4.62 9 7 9 C7 7.35 7 5.7 7 4 C7.99 4 8.98 4 10 4 C10.33 6.31 10.66 8.62 11 11 C7.73454239 12.88391785 4.71888239 13.49287967 1 14 C1.33 14.66 1.66 15.32 2 16 C4.97 16 7.94 16 11 16 C10.67 17.65 10.34 19.3 10 21 C2.79347319 22.46573427 2.79347319 22.46573427 -0.875 20.3125 C-3.96546585 16.94934599 -4.86638594 15.20252658 -5.375 10.625 C-4.90806256 6.11127145 -3.21145642 3.21145642 0 0 Z " fill="#D32148" transform="translate(91,93)"/>
<path d="M0 0 C0.721875 0.268125 1.44375 0.53625 2.1875 0.8125 C2.5175 2.1325 2.8475 3.4525 3.1875 4.8125 C1.2075 4.8125 -0.7725 4.8125 -2.8125 4.8125 C-2.8125 6.4625 -2.8125 8.1125 -2.8125 9.8125 C-1.1625 9.8125 0.4875 9.8125 2.1875 9.8125 C1.8575 11.1325 1.5275 12.4525 1.1875 13.8125 C-0.1325 14.1425 -1.4525 14.4725 -2.8125 14.8125 C-2.8125 19.4325 -2.8125 24.0525 -2.8125 28.8125 C-4.4625 28.4825 -6.1125 28.1525 -7.8125 27.8125 C-7.95810195 24.08374612 -8.04667043 20.35572566 -8.125 16.625 C-8.16689453 15.56990234 -8.20878906 14.51480469 -8.25195312 13.42773438 C-8.39013214 4.66718455 -8.39013214 4.66718455 -5.46875 1.5625 C-2.8125 -0.1875 -2.8125 -0.1875 0 0 Z " fill="#C52243" transform="translate(204.8125,85.1875)"/>
<path d="M0 0 C2 3 2 3 1.625 5.1875 C1.41875 5.785625 1.2125 6.38375 1 7 C0.67 6.67 0.34 6.34 0 6 C-3 5.83333333 -3 5.83333333 -6 6 C-7.39681568 7.16983444 -7.39681568 7.16983444 -7.125 10.4375 C-7.2526281 13.84105584 -7.2526281 13.84105584 -6 16 C-3.36 15.67 -0.72 15.34 2 15 C1.6875 17.375 1.6875 17.375 1 20 C-2 22 -2 22 -4.875 21.9375 C-9.02708283 20.69187515 -10.5461904 19.60854353 -13 16 C-13.99773047 10.64122184 -13.92462148 6.47361549 -11 1.8125 C-6.88985712 -0.67071133 -4.74527226 -0.62233079 0 0 Z " fill="#CF1F4A" transform="translate(247,93)"/>
<path d="M0 0 C4.66307014 -0.04937279 9.32598873 -0.08570627 13.98925781 -0.10986328 C15.57619883 -0.11993188 17.16312125 -0.13358767 18.75 -0.15087891 C21.02869247 -0.17509001 23.30714006 -0.18647422 25.5859375 -0.1953125 C26.29744965 -0.20563507 27.00896179 -0.21595764 27.74203491 -0.22659302 C29.49631665 -0.22699422 31.24996709 -0.12202209 33 0 C33.66 0.66 34.32 1.32 35 2 C34.9765625 4.1640625 34.9765625 4.1640625 34.625 6.625 C34.51414063 7.44226563 34.40328125 8.25953125 34.2890625 9.1015625 C34.14597656 10.04128906 34.14597656 10.04128906 34 11 C33.67 11 33.34 11 33 11 C32.505 7.04 32.505 7.04 32 3 C21.92392944 1.60177875 13.83536577 5.40106902 4.81835938 9.35742188 C3 10 3 10 0 10 C0 6.7 0 3.4 0 0 Z " fill="#FAFBFA" transform="translate(0,0)"/>
<path d="M0 0 C0.99 0 1.98 0 3 0 C3 1.65 3 3.3 3 5 C4.98 5 6.96 5 9 5 C9 6.32 9 7.64 9 9 C7.02 9.33 5.04 9.66 3 10 C3.33 13.63 3.66 17.26 4 21 C5.65 21.33 7.3 21.66 9 22 C8.67 23.32 8.34 24.64 8 26 C5.75 26.6875 5.75 26.6875 3 27 C-0.12056696 25.26635169 -0.85331791 24.44004627 -2 21 C-2.22373872 18.00378134 -2.18513857 15.00374332 -2.1875 12 C-2.19974609 11.18015625 -2.21199219 10.3603125 -2.22460938 9.515625 C-2.22654297 8.72671875 -2.22847656 7.9378125 -2.23046875 7.125 C-2.23457764 6.40570313 -2.23868652 5.68640625 -2.24291992 4.9453125 C-2 3 -2 3 0 0 Z " fill="#C93558" transform="translate(138,88)"/>
<path d="M0 0 C1.98 0 3.96 0 6 0 C5.67 0.66 5.34 1.32 5 2 C3.68 1.67 2.36 1.34 1 1 C1.33 10.24 1.66 19.48 2 29 C0.02 29.33 -1.96 29.66 -4 30 C-3.34 28.35 -2.68 26.7 -2 25 C-2.804375 25.020625 -3.60875 25.04125 -4.4375 25.0625 C-7 25 -7 25 -8 24 C-8.07226502 22.14712498 -8.0838122 20.29166122 -8.0625 18.4375 C-8.05347656 17.42558594 -8.04445312 16.41367188 -8.03515625 15.37109375 C-8.02355469 14.58863281 -8.01195312 13.80617188 -8 13 C-6.02 12.67 -4.04 12.34 -2 12 C-2 10.68 -2 9.36 -2 8 C-3.98 8 -5.96 8 -8 8 C-8 7.67 -8 7.34 -8 7 C-5.69 7 -3.38 7 -1 7 C-0.67 4.69 -0.34 2.38 0 0 Z " fill="#FDECF3" transform="translate(149,85)"/>
<path d="M0 0 C2.1928313 3.28924695 1.99303906 5.93311922 1.87109375 9.78515625 C2.06117252 13.05105514 3.20685583 15.83089583 4.33203125 18.87890625 C5.20011567 21.63545502 5.22045078 24.13413982 5 27 C4.01 27.33 3.02 27.66 2 28 C0.64870562 25.48743702 -0.68074204 22.96682058 -2 20.4375 C-2.57234375 19.38079102 -2.57234375 19.38079102 -3.15625 18.30273438 C-5.51546681 13.73175181 -6.72988564 10.26560353 -6 5 C-4.28586592 2.67877676 -2.42133939 1.66467083 0 0 Z " fill="#DA1C44" transform="translate(42,126)"/>
<path d="M0 0 C0.66 0.33 1.32 0.66 2 1 C2.25296207 6.81812771 1.65982537 12.39552793 0 18 C-2 20 -2 20 -4.5 20.3125 C-5.325 20.209375 -6.15 20.10625 -7 20 C-9.36574234 16.4513865 -9.10865265 15.4235475 -8.625 11.3125 C-8.51414062 10.31863281 -8.40328125 9.32476562 -8.2890625 8.30078125 C-8.19367188 7.54152344 -8.09828125 6.78226563 -8 6 C-7.21238281 5.71382812 -6.42476563 5.42765625 -5.61328125 5.1328125 C-2.68834486 3.86490286 -1.68028142 2.65307593 0 0 Z " fill="#F8DDE9" transform="translate(112,141)"/>
<path d="M0 0 C1.32 0.33 2.64 0.66 4 1 C4.33 8.26 4.66 15.52 5 23 C6.32 23.33 7.64 23.66 9 24 C8.67 25.32 8.34 26.64 8 28 C5.125 28.1875 5.125 28.1875 2 28 C-0.29755922 24.55366118 -0.23643976 23.28931609 -0.1953125 19.23828125 C-0.18886719 18.12001953 -0.18242188 17.00175781 -0.17578125 15.84960938 C-0.15902344 14.68236328 -0.14226562 13.51511719 -0.125 12.3125 C-0.11597656 11.13365234 -0.10695313 9.95480469 -0.09765625 8.74023438 C-0.07406423 5.82661974 -0.0411454 2.91341108 0 0 Z " fill="#AF1C40" transform="translate(125,86)"/>
<path d="M0 0 C2 2 2 2 2.125 5.125 C2.08375 6.07375 2.0425 7.0225 2 8 C-1.28519475 9.09506492 -3.73663415 9.09960608 -7.1875 9.0625 C-8.81751953 9.04896484 -8.81751953 9.04896484 -10.48046875 9.03515625 C-11.31191406 9.02355469 -12.14335937 9.01195312 -13 9 C-12.63774912 2.60023447 -12.63774912 2.60023447 -9.875 0 C-6.17785097 -1.28596488 -3.77190494 -0.92518423 0 0 Z " fill="#F3F3F3" transform="translate(227,44)"/>
<path d="M0 0 C0.90105469 0.01804688 1.80210938 0.03609375 2.73046875 0.0546875 C3.41753906 0.07789063 4.10460937 0.10109375 4.8125 0.125 C4.9375 3.5 4.9375 3.5 4.8125 7.125 C2.8125 9.125 2.8125 9.125 0.71875 9.390625 C-0.0753125 9.38546875 -0.869375 9.3803125 -1.6875 9.375 C-2.4815625 9.38015625 -3.275625 9.3853125 -4.09375 9.390625 C-6.1875 9.125 -6.1875 9.125 -8.1875 7.125 C-8.5 4.625 -8.5 4.625 -8.1875 2.125 C-4.87379 -0.08414 -3.8428979 -0.09981553 0 0 Z " fill="#F6F6F6" transform="translate(85.1875,58.875)"/>
<path d="M0 0 C0.78375 0.66 1.5675 1.32 2.375 2 C5.38853172 4.06867142 7.4510575 4.14803252 11.0625 3.9375 C14.98883186 3.77193179 15.69965159 3.78546542 19.0625 6.1875 C20.96676604 8.95175715 21.71610268 10.68786459 22 14 C21.01 14.33 20.02 14.66 19 15 C18.67 13.35 18.34 11.7 18 10 C17.4225 10.28875 16.845 10.5775 16.25 10.875 C15.5075 11.24625 14.765 11.6175 14 12 C13.401875 12.4125 12.80375 12.825 12.1875 13.25 C8.79976446 14.41150933 6.28567136 13.13734778 3 12 C3 11.67 3 11.34 3 11 C4.134375 10.690625 5.26875 10.38125 6.4375 10.0625 C9.78775099 9.37075469 9.78775099 9.37075469 11 8 C10.113125 7.7525 9.22625 7.505 8.3125 7.25 C4.86843744 5.95035375 2.66975197 4.51270773 0 2 C0 1.34 0 0.68 0 0 Z " fill="#D02347" transform="translate(18,70)"/>
<path d="M0 0 C0.928125 0.0825 1.85625 0.165 2.8125 0.25 C3.1425 1.9 3.4725 3.55 3.8125 5.25 C2.1625 5.58 0.5125 5.91 -1.1875 6.25 C-1.5175 11.2 -1.8475 16.15 -2.1875 21.25 C-3.5075 20.92 -4.8275 20.59 -6.1875 20.25 C-6.26862454 17.66603321 -6.32804748 15.08462432 -6.375 12.5 C-6.40013672 11.77039063 -6.42527344 11.04078125 -6.45117188 10.2890625 C-6.495598 7.03114665 -6.40377723 4.66195663 -4.875 1.75 C-3.1875 0.25 -3.1875 0.25 0 0 Z " fill="#BD1E47" transform="translate(216.1875,92.75)"/>
<path d="M0 0 C4.75 0.75 4.75 0.75 7 3 C10.09926819 2.67801034 10.09926819 2.67801034 13 2 C12.505 2.845625 12.01 3.69125 11.5 4.5625 C9.60788533 8.89859613 9.19565322 12.65398857 10.75 17.1875 C11 19 11 19 9.375 21.25 C6.62731223 23.27461204 5.3309303 23.37010337 2 23 C3.32 22.67 4.64 22.34 6 22 C5.96675108 19.45494659 5.89935637 16.91833268 5.8125 14.375 C5.80379883 13.30572266 5.80379883 13.30572266 5.79492188 12.21484375 C5.5607878 6.54359616 3.98158574 4.02603725 0 0 Z " fill="#FDE5EE" transform="translate(77,92)"/>
<path d="M0 0 C1.20462891 -0.02126953 1.20462891 -0.02126953 2.43359375 -0.04296875 C4.5625 0.1875 4.5625 0.1875 6.5625 2.1875 C6.828125 5.15625 6.828125 5.15625 6.8125 8.6875 C6.81765625 9.8528125 6.8228125 11.018125 6.828125 12.21875 C6.5625 15.1875 6.5625 15.1875 4.5625 17.1875 C3.12805745 13.33243565 2.44531987 10.28880468 2.5625 6.1875 C1.45148816 4.85101983 1.45148816 4.85101983 -1.375 5.0625 C-4.35295728 4.97424336 -4.35295728 4.97424336 -6.4375 6.1875 C-5.33458299 0.04267666 -5.33458299 0.04267666 0 0 Z " fill="#D02548" transform="translate(185.4375,92.8125)"/>
<path d="M0 0 C0.66 0 1.32 0 2 0 C2.33 1.65 2.66 3.3 3 5 C3.66 3.35 4.32 1.7 5 0 C5.33 0 5.66 0 6 0 C6.06058594 0.90363281 6.12117187 1.80726562 6.18359375 2.73828125 C6.26738281 3.91777344 6.35117188 5.09726563 6.4375 6.3125 C6.51871094 7.48425781 6.59992188 8.65601562 6.68359375 9.86328125 C6.8867371 13.02590958 6.8867371 13.02590958 8 16 C7.34 16 6.68 16 6 16 C5.67 16.99 5.34 17.98 5 19 C2.36 19 -0.28 19 -3 19 C-3 18.01 -3 17.02 -3 16 C-0.69 16.66 1.62 17.32 4 18 C4 16.68 4 15.36 4 14 C2.68 13.67 1.36 13.34 0 13 C0 8.71 0 4.42 0 0 Z " fill="#FCECEE" transform="translate(228,96)"/>
<path d="M0 0 C0.99 0.66 1.98 1.32 3 2 C3.29296875 5.0390625 3.29296875 5.0390625 3.1875 8.625 C3.16042969 9.81351563 3.13335937 11.00203125 3.10546875 12.2265625 C3.07066406 13.14179687 3.03585938 14.05703125 3 15 C2.34 15.33 1.68 15.66 1 16 C0.86722656 15.28972656 0.73445313 14.57945313 0.59765625 13.84765625 C0.42105469 12.92855469 0.24445313 12.00945312 0.0625 11.0625 C-0.11152344 10.14597656 -0.28554687 9.22945312 -0.46484375 8.28515625 C-0.77714988 6.04710156 -0.77714988 6.04710156 -2 5 C-5.36629251 4.85363946 -7.78419562 4.92806521 -11 6 C-10.63680051 3.3668037 -10.14494976 2.15568678 -8.3125 0.1875 C-5.14831447 -1.43735203 -3.3746744 -0.93342058 0 0 Z " fill="#D4244B" transform="translate(117,93)"/>
<path d="M0 0 C0.99 0 1.98 0 3 0 C3 3.3 3 6.6 3 10 C4.65 9.67 6.3 9.34 8 9 C7.125 13.75 7.125 13.75 6 16 C5.79810633 21.75396962 6.26063758 27.29634701 7 33 C6.34 32.67 5.68 32.34 5 32 C3.00775703 25.91259093 2.76503062 20.37028091 3 14 C2.01 14 1.02 14 0 14 C-1.70532323 15.94009522 -1.70532323 15.94009522 -3 18 C-3.33 17.34 -3.66 16.68 -4 16 C-3.34 15.21625 -2.68 14.4325 -2 13.625 C0.89251428 9.38807768 0.35098192 4.93324584 0 0 Z " fill="#CA2C4F" transform="translate(40,114)"/>
<path d="M0 0 C1.6953125 1.13671875 1.6953125 1.13671875 3 3 C3.14453125 6.1015625 3.14453125 6.1015625 2.8125 9.625 C2.71582031 10.79289062 2.61914062 11.96078125 2.51953125 13.1640625 C2.34808594 14.09992188 2.17664063 15.03578125 2 16 C1.34 16.33 0.68 16.66 0 17 C0.33 14.36 0.66 11.72 1 9 C0.34 9 -0.32 9 -1 9 C-1.33 7.68 -1.66 6.36 -2 5 C-6.65052872 4.73067479 -6.65052872 4.73067479 -11 6 C-10.51812367 1.42217484 -10.51812367 1.42217484 -8.3125 -0.375 C-5.19201385 -1.21837464 -3.10081746 -0.85767291 0 0 Z " fill="#D72047" transform="translate(263,93)"/>
<path d="M0 0 C0.66 0.66 1.32 1.32 2 2 C1.9765625 4.1640625 1.9765625 4.1640625 1.625 6.625 C1.51414063 7.44226563 1.40328125 8.25953125 1.2890625 9.1015625 C1.14597656 10.04128906 1.14597656 10.04128906 1 11 C0.67 11 0.34 11 0 11 C-0.495 7.04 -0.495 7.04 -1 3 C-11.07607056 1.60177875 -19.16463423 5.40106902 -28.18164062 9.35742188 C-30 10 -30 10 -33 10 C-33 8.68 -33 7.36 -33 6 C-32.24976563 5.90203125 -31.49953125 5.8040625 -30.7265625 5.703125 C-25.47702702 4.93619035 -20.78506489 4.07630966 -15.9375 1.875 C-10.72700445 -0.38822983 -5.62311384 -0.83956214 0 0 Z " fill="#AE3959" transform="translate(33,0)"/>
<path d="M0 0 C0.66 0.33 1.32 0.66 2 1 C1.4225 1.30550781 0.845 1.61101562 0.25 1.92578125 C-2.22542247 3.45143225 -4.09952073 4.78699747 -6 7 C-6.34909512 9.91196414 -6.1257436 12.55242758 -5.91015625 15.47265625 C-6 18 -6 18 -8.5625 20.5 C-9.10261719 20.84417969 -9.64273438 21.18835938 -10.19921875 21.54296875 C-14.13917216 24.73082693 -16.44520042 29.6840516 -19 34 C-19.99 33.67 -20.98 33.34 -22 33 C-20.77973218 31.24378329 -19.54835931 29.49528005 -18.3125 27.75 C-17.62800781 26.77546875 -16.94351563 25.8009375 -16.23828125 24.796875 C-14 22 -14 22 -11.23046875 20.015625 C-8.69653785 18.17495362 -8.69653785 18.17495362 -8.6875 15.125 C-8.790625 14.09375 -8.89375 13.0625 -9 12 C-9.25 6.29166667 -9.25 6.29166667 -6.75 3.375 C-5.8425 2.92125 -4.935 2.4675 -4 2 C-3.278125 1.566875 -2.55625 1.13375 -1.8125 0.6875 C-0.9153125 0.3471875 -0.9153125 0.3471875 0 0 Z " fill="#A53757" transform="translate(101,134)"/>
<path d="M0 0 C2 3.75 2 3.75 2 6 C1.34 6 0.68 6 0 6 C0.33 6.66 0.66 7.32 1 8 C1.99 8 2.98 8 4 8 C3.67 8.66 3.34 9.32 3 10 C2.84978219 12.68081021 2.76875277 15.31835441 2.75 18 C2.729375 18.73734375 2.70875 19.4746875 2.6875 20.234375 C2.63528383 22.6262929 2.63528383 22.6262929 3 26 C3.99 26.66 4.98 27.32 6 28 C4.35 28 2.7 28 1 28 C0.94392578 26.51886719 0.94392578 26.51886719 0.88671875 25.0078125 C0.78810547 23.08582031 0.78810547 23.08582031 0.6875 21.125 C0.62949219 19.84882812 0.57148438 18.57265625 0.51171875 17.2578125 C0.34285156 16.18273437 0.17398438 15.10765625 0 14 C-0.99 13.34 -1.98 12.68 -3 12 C-2.34 10.68 -1.68 9.36 -1 8 C-2.65 8 -4.3 8 -6 8 C-6 6.35 -6 4.7 -6 3 C-4.02 3 -2.04 3 0 3 C0 2.01 0 1.02 0 0 Z " fill="#F8CCD7" transform="translate(208,87)"/>
<path d="M0 0 C0.99 0.33 1.98 0.66 3 1 C3 3.97 3 6.94 3 10 C1.68 9.34 0.36 8.68 -1 8 C-1 13.61 -1 19.22 -1 25 C-1.33 25 -1.66 25 -2 25 C-2.33 20.05 -2.66 15.1 -3 10 C-3.99 11.485 -3.99 11.485 -5 13 C-5.33 11.68 -5.66 10.36 -6 9 C-7.65 8.67 -9.3 8.34 -11 8 C-11 7.67 -11 7.34 -11 7 C-8.69 7 -6.38 7 -4 7 C-4 6.34 -4 5.68 -4 5 C-3.34 5 -2.68 5 -2 5 C-1.855625 4.360625 -1.71125 3.72125 -1.5625 3.0625 C-1 1 -1 1 0 0 Z " fill="#F5C0CA" transform="translate(225,85)"/>
<path d="M0 0 C0.598125 0.20625 1.19625 0.4125 1.8125 0.625 C1.1525 2.935 0.4925 5.245 -0.1875 7.625 C2.7825 8.12 2.7825 8.12 5.8125 8.625 C4.8225 10.11 4.8225 10.11 3.8125 11.625 C-0.24195642 12.05632515 -1.73720958 11.92519361 -5.1875 9.625 C-5.5859375 7.75 -5.5859375 7.75 -5.5625 5.625 C-5.57023437 4.92375 -5.57796875 4.2225 -5.5859375 3.5 C-4.91363294 0.33621383 -3.05806982 -0.52424054 0 0 Z " fill="#D31A4A" transform="translate(111.1875,102.375)"/>
<path d="M0 0 C0.09765625 6.15234375 0.09765625 6.15234375 0 8 C-0.33 8.33 -0.66 8.66 -1 9 C-7.34257749 8.53017945 -7.34257749 8.53017945 -9.9375 6.4375 C-10.4634375 5.7259375 -10.4634375 5.7259375 -11 5 C-10 2 -10 2 -8.3125 0.8125 C-5.45030907 -0.19313465 -3.01172092 -0.13689641 0 0 Z " fill="#C52855" transform="translate(189,101)"/>
<path d="M0 0 C1.65 0 3.3 0 5 0 C4.67 0.66 4.34 1.32 4 2 C3.01 1.67 2.02 1.34 1 1 C1.33 9.91 1.66 18.82 2 28 C1.34 28 0.68 28 0 28 C-0.33 27.34 -0.66 26.68 -1 26 C-1.66 26.99 -2.32 27.98 -3 29 C-3.99 28.67 -4.98 28.34 -6 28 C-5.01 26.515 -5.01 26.515 -4 25 C-3.54227937 22.26127045 -3.54227937 22.26127045 -3.375 19.3125 C-3.30023438 18.31863281 -3.22546875 17.32476562 -3.1484375 16.30078125 C-3.09945312 15.54152344 -3.05046875 14.78226563 -3 14 C-2.34 14.33 -1.68 14.66 -1 15 C-0.67 10.05 -0.34 5.1 0 0 Z " fill="#FCD2E5" transform="translate(124,85)"/>
<path d="M0 0 C2.1875 -0.3125 2.1875 -0.3125 5 0 C7.8125 2.125 7.8125 2.125 10 5 C10.3125 8.3125 10.3125 8.3125 10 11 C8 8 8 8 8 5 C7.01 5 6.02 5 5 5 C5 6.65 5 8.3 5 10 C2.69 10 0.38 10 -2 10 C-1.60196439 7.11424181 -1.20990931 6.17810487 1.0625 4.25 C1.701875 3.8375 2.34125 3.425 3 3 C2.01 2.01 1.02 1.02 0 0 Z " fill="#C73F5B" transform="translate(93,92)"/>
<path d="M0 0 C0.33 0 0.66 0 1 0 C1.33 7.26 1.66 14.52 2 22 C3.32 22.33 4.64 22.66 6 23 C6 23.66 6 24.32 6 25 C3.6875 25.1875 3.6875 25.1875 1 25 C0 24 -1 23 -2 22 C-4.16299211 22.22757731 -4.16299211 22.22757731 -6 23 C-5.01 21.515 -5.01 21.515 -4 20 C-3.54084493 17.03157342 -3.54084493 17.03157342 -3.375 13.8125 C-3.30023438 12.72582031 -3.22546875 11.63914062 -3.1484375 10.51953125 C-3.09945312 9.68808594 -3.05046875 8.85664062 -3 8 C-2.67 8 -2.34 8 -2 8 C-2 10.97 -2 13.94 -2 17 C-1.34 17 -0.68 17 0 17 C0 11.39 0 5.78 0 0 Z " fill="#FED4E2" transform="translate(196,91)"/>
<path d="M0 0 C2.475 0.495 2.475 0.495 5 1 C5 3.31 5 5.62 5 8 C4.67 8 4.34 8 4 8 C3.87625 7.030625 3.7525 6.06125 3.625 5.0625 C3.41875 4.051875 3.2125 3.04125 3 2 C2.34 1.67 1.68 1.34 1 1 C1.33 8.59 1.66 16.18 2 24 C2.66 24.33 3.32 24.66 4 25 C4 21.37 4 17.74 4 14 C4.33 14 4.66 14 5 14 C5 18.62 5 23.24 5 28 C3.68 28 2.36 28 1 28 C-0.35700647 25.28598706 -0.1123861 23.15153684 -0.09765625 20.1171875 C-0.09443359 18.95058594 -0.09121094 17.78398438 -0.08789062 16.58203125 C-0.07951172 15.35871094 -0.07113281 14.13539062 -0.0625 12.875 C-0.05798828 11.64394531 -0.05347656 10.41289063 -0.04882812 9.14453125 C-0.0370133 6.09630608 -0.02054028 3.04817686 0 0 Z " fill="#B83554" transform="translate(150,86)"/>
<path d="M0 0 C0.66 0 1.32 0 2 0 C0.67620626 3.97138121 -0.66082933 6.43140718 -4 9 C-9.16926502 11.39263124 -13.3629458 12.58993836 -19 11 C-19 10.34 -19 9.68 -19 9 C-18.41992188 8.97421875 -17.83984375 8.9484375 -17.2421875 8.921875 C-10.50983591 8.43305739 -6.60183544 6.60183544 -1.75 1.75 C-1.1725 1.1725 -0.595 0.595 0 0 Z " fill="#B6274E" transform="translate(79,168)"/>
<path d="M0 0 C1.093125 0.0825 2.18625 0.165 3.3125 0.25 C3.3125 1.24 3.3125 2.23 3.3125 3.25 C1.0025 3.25 -1.3075 3.25 -3.6875 3.25 C-3.6875 7.21 -3.6875 11.17 -3.6875 15.25 C-4.6775 15.25 -5.6675 15.25 -6.6875 15.25 C-6.76892927 13.5007786 -6.82688541 11.75045458 -6.875 10 C-6.90980469 9.02546875 -6.94460937 8.0509375 -6.98046875 7.046875 C-6.45738042 2.05312506 -5.01321711 0.33987913 0 0 Z " fill="#D21843" transform="translate(143.6875,92.75)"/>
<path d="M0 0 C0 0.33 0 0.66 0 1 C-2.31 1.33 -4.62 1.66 -7 2 C-7 2.99 -7 3.98 -7 5 C-5.02 5 -3.04 5 -1 5 C-0.34 6.32 0.32 7.64 1 9 C-1.97 9.66 -4.94 10.32 -8 11 C-8 10.01 -8 9.02 -8 8 C-8.99 8 -9.98 8 -11 8 C-10.74438677 5.6568787 -10.40729228 3.32156597 -10 1 C-6.78548731 -0.60725635 -3.56387464 -0.05748185 0 0 Z " fill="#FAD1DD" transform="translate(188,92)"/>
<path d="M0 0 C0.66 0.33 1.32 0.66 2 1 C-1.5 5.875 -1.5 5.875 -6 7 C-6.33 9.97 -6.66 12.94 -7 16 C-5.68 16.66 -4.36 17.32 -3 18 C-1.03177114 16.03177114 -1.33751619 12.65191291 -1 10 C-0.67 10 -0.34 10 0 10 C0.1953125 16.0546875 0.1953125 16.0546875 0 18 C-2 20 -2 20 -4.5 20.3125 C-5.325 20.209375 -6.15 20.10625 -7 20 C-9.36574234 16.4513865 -9.10865265 15.4235475 -8.625 11.3125 C-8.51414062 10.31863281 -8.40328125 9.32476562 -8.2890625 8.30078125 C-8.19367188 7.54152344 -8.09828125 6.78226563 -8 6 C-7.21238281 5.71382812 -6.42476563 5.42765625 -5.61328125 5.1328125 C-2.68834486 3.86490286 -1.68028142 2.65307593 0 0 Z " fill="#A45D74" transform="translate(112,141)"/>
<path d="M0 0 C0.33 0 0.66 0 1 0 C1.04898438 1.00160156 1.09796875 2.00320312 1.1484375 3.03515625 C1.22354079 4.37762759 1.29908526 5.7200743 1.375 7.0625 C1.44460937 8.37347656 1.51421875 9.68445313 1.5859375 11.03515625 C1.99805436 14.98136957 2.79756567 18.24117073 4 22 C2.68 22.33 1.36 22.66 0 23 C-1.19219354 20.61561291 -1.12916022 19.12343998 -1.1328125 16.46484375 C-1.13410156 15.57345703 -1.13539062 14.68207031 -1.13671875 13.76367188 C-1.13285156 12.83103516 -1.12898438 11.89839844 -1.125 10.9375 C-1.12886719 10.00099609 -1.13273437 9.06449219 -1.13671875 8.09960938 C-1.13542969 7.20951172 -1.13414063 6.31941406 -1.1328125 5.40234375 C-1.13168457 4.58241943 -1.13055664 3.76249512 -1.12939453 2.91772461 C-1 1 -1 1 0 0 Z " fill="#D81C43" transform="translate(127,89)"/>
<path d="M0 0 C1.65 0 3.3 0 5 0 C4.67 1.32 4.34 2.64 4 4 C2.68 4.33 1.36 4.66 0 5 C0 9.62 0 14.24 0 19 C-0.66 19 -1.32 19 -2 19 C-3.10370043 15.6888987 -2.92673641 13.75251051 -2.5625 10.3125 C-2.46066406 9.31863281 -2.35882813 8.32476562 -2.25390625 7.30078125 C-2.17011719 6.54152344 -2.08632812 5.78226562 -2 5 C-2.66 5 -3.32 5 -4 5 C-3.67 3.68 -3.34 2.36 -3 1 C-3 1.99 -3 2.98 -3 4 C-1.35 3.67 0.3 3.34 2 3 C1.34 2.67 0.68 2.34 0 2 C0 1.34 0 0.68 0 0 Z " fill="#CD3D5B" transform="translate(202,95)"/>
<path d="M0 0 C0.99 0 1.98 0 3 0 C3.33 3.63 3.66 7.26 4 11 C3.01 11.33 2.02 11.66 1 12 C1.33 12.66 1.66 13.32 2 14 C2.06996014 15.70702735 2.08440154 17.41668003 2.0625 19.125 C2.05347656 20.03507812 2.04445313 20.94515625 2.03515625 21.8828125 C2.01775391 22.93082031 2.01775391 22.93082031 2 24 C1.67 24 1.34 24 1 24 C-0.32915021 16.02509872 -0.08801359 8.05813281 0 0 Z " fill="#DB1A43" transform="translate(67,88)"/>
<path d="M0 0 C1.65 0.33 3.3 0.66 5 1 C4.67 2.98 4.34 4.96 4 7 C4.99 7.33 5.98 7.66 7 8 C7 8.66 7 9.32 7 10 C4.6875 10.25 4.6875 10.25 2 10 C0.125 8.375 0.125 8.375 -1 6 C-0.6875 2.75 -0.6875 2.75 0 0 Z " fill="#CA2447" transform="translate(252,104)"/>
<path d="M0 0 C3.81936528 1.55603771 6.26044438 3.95604931 9 7 C9 7.66 9 8.32 9 9 C10.98 9 12.96 9 15 9 C15 9.33 15 9.66 15 10 C13.41753293 10.08153933 11.83383727 10.13943557 10.25 10.1875 C9.36828125 10.22230469 8.4865625 10.25710937 7.578125 10.29296875 C4.48088329 9.94100946 3.19239697 9.19239697 1 7 C0.25 3.3125 0.25 3.3125 0 0 Z " fill="#D22048" transform="translate(51,170)"/>
<path d="M0 0 C4.75 0.875 4.75 0.875 7 2 C7.484375 4.984375 7.484375 4.984375 7.75 8.75 C7.84796875 9.98234375 7.9459375 11.2146875 8.046875 12.484375 C7.99001417 16.74893713 7.21858533 19.52754272 4.5 22.8125 C3 24 3 24 1 24 C1 22 1 22 2.4375 20.5 C2.953125 20.005 3.46875 19.51 4 19 C5.84070199 15.31859602 5.36784824 11.02730403 5 7 C3.61451845 3.97713116 2.33128575 2.33128575 0 0 Z " fill="#FEE2EA" transform="translate(261,92)"/>
<path d="M0 0 C1.32 0 2.64 0 4 0 C4 0.66 4 1.32 4 2 C3.01 2.495 3.01 2.495 2 3 C1.59270772 5.32156597 1.25561323 7.6568787 1 10 C1.99 10.33 2.98 10.66 4 11 C3 12 3 12 0.4375 12.0625 C-0.366875 12.041875 -1.17125 12.02125 -2 12 C-3.125 4.25 -3.125 4.25 -2 2 C-1.34 2 -0.68 2 0 2 C0 1.34 0 0.68 0 0 Z " fill="#DE254F" transform="translate(201,87)"/>
<path d="M0 0 C6.875 0.875 6.875 0.875 8 2 C8.13690567 5.4910947 8.05716406 8.68242188 7.4375 12.125 C6.98700402 15.08540216 7.23951375 17.12705194 8 20 C7.01 19.67 6.02 19.34 5 19 C4.80593522 17.35492782 4.61992065 15.70890406 4.4375 14.0625 C4.33308594 13.14597656 4.22867187 12.22945312 4.12109375 11.28515625 C4.08113281 10.53105469 4.04117187 9.77695313 4 9 C4.33 8.67 4.66 8.34 5 8 C5.04063832 6.33382885 5.042721 4.66611905 5 3 C2.525 2.01 2.525 2.01 0 1 C0 0.67 0 0.34 0 0 Z " fill="#FDE9EB" transform="translate(23,83)"/>
<path d="M0 0 C0.33 0 0.66 0 1 0 C1 5.61 1 11.22 1 17 C0.34 17 -0.32 17 -1 17 C-1.03738281 16.40832031 -1.07476562 15.81664063 -1.11328125 15.20703125 C-1.61164911 9.21684497 -2.63609267 5.36390733 -7 1 C-5.68 1 -4.36 1 -3 1 C-3 1.66 -3 2.32 -3 3 C-2.01 3 -1.02 3 0 3 C0 2.01 0 1.02 0 0 Z " fill="#FEECF5" transform="translate(195,91)"/>
<path d="M0 0 C0 4.95 0 9.9 0 15 C-1.32 15 -2.64 15 -4 15 C-4.027193 13.41676312 -4.04648306 11.83338938 -4.0625 10.25 C-4.07410156 9.36828125 -4.08570312 8.4865625 -4.09765625 7.578125 C-4.00717379 5.1893881 -3.80486275 3.24754126 -3 1 C-1 0 -1 0 0 0 Z " fill="#BF2449" transform="translate(71,99)"/>
<path d="M0 0 C0.99 0.33 1.98 0.66 3 1 C3.33 3.97 3.66 6.94 4 10 C2.68 9.67 1.36 9.34 0 9 C-0.33 8.01 -0.66 7.02 -1 6 C-3.00016466 4.79117904 -3.00016466 4.79117904 -5 4 C-2.6875 1.9375 -2.6875 1.9375 0 0 Z " fill="#E3163F" transform="translate(34,79)"/>
<path d="M0 0 C6.14323132 0.2730325 10.02382506 1.09014826 15 5 C15.99 5.66 16.98 6.32 18 7 C16.68 7.33 15.36 7.66 14 8 C14 7.34 14 6.68 14 6 C13.01 6 12.02 6 11 6 C10.67 6.66 10.34 7.32 10 8 C9.67 7.01 9.34 6.02 9 5 C7.35 4.67 5.7 4.34 4 4 C4 3.34 4 2.68 4 2 C2.68 1.34 1.36 0.68 0 0 Z " fill="#C9A9B4" transform="translate(36,12)"/>
<path d="M0 0 C0.66 1.32 1.32 2.64 2 4 C2.515625 3.773125 3.03125 3.54625 3.5625 3.3125 C7.30851584 2.83224156 9.72791618 4.27135194 13 6 C13.33 6.99 13.66 7.98 14 9 C13.21625 8.690625 12.4325 8.38125 11.625 8.0625 C7.10148422 6.73664193 2.68568186 6.35188915 -2 6 C-2 4.35 -2 2.7 -2 1 C-1.34 0.67 -0.68 0.34 0 0 Z " fill="#F4D3DF" transform="translate(34,6)"/>
<path d="M0 0 C1 4 1 4 1 6 C0.34 6 -0.32 6 -1 6 C-1.268125 6.7425 -1.53625 7.485 -1.8125 8.25 C-2.94229421 10.86636554 -4.20893202 12.80187111 -6 15 C-6.99 14.67 -7.98 14.34 -9 14 C-6.03 9.38 -3.06 4.76 0 0 Z " fill="#FBE5EA" transform="translate(87,159)"/>
<path d="M0 0 C2 2 2 2 2.1953125 5.6953125 C2.182009 7.17200108 2.15814835 8.64862358 2.125 10.125 C2.11597656 10.87910156 2.10695313 11.63320312 2.09765625 12.41015625 C2.0740687 14.27357254 2.03819719 16.13682593 2 18 C0.35 17.67 -1.3 17.34 -3 17 C-2.01 16.67 -1.02 16.34 0 16 C0 10.72 0 5.44 0 0 Z " fill="#CA4067" transform="translate(81,96)"/>
<path d="M0 0 C1.98 0 3.96 0 6 0 C6.33 1.32 6.66 2.64 7 4 C-0.42857143 6.42857143 -0.42857143 6.42857143 -4 5 C-3.34 4.67 -2.68 4.34 -2 4 C-0.86649466 1.98330173 -0.86649466 1.98330173 0 0 Z " fill="#FCDEE4" transform="translate(109,97)"/>
<path d="M0 0 C2.4375 0.375 2.4375 0.375 5 1 C5.33 1.66 5.66 2.32 6 3 C1.375 6 1.375 6 -2 6 C-2.33 7.65 -2.66 9.3 -3 11 C-3.33 11 -3.66 11 -4 11 C-4.36630156 7.06225823 -4.30233203 5.43460229 -2 2.125 C-1.34 1.42375 -0.68 0.7225 0 0 Z " fill="#C32342" transform="translate(91,93)"/>
<path d="M0 0 C0.66 0.99 1.32 1.98 2 3 C-0.97 2.505 -0.97 2.505 -4 2 C-3.67 2.66 -3.34 3.32 -3 4 C-5.64 4.66 -8.28 5.32 -11 6 C-10.51812367 1.42217484 -10.51812367 1.42217484 -8.3125 -0.375 C-5.19983994 -1.21625948 -3.08605799 -0.87214682 0 0 Z " fill="#BB3054" transform="translate(263,93)"/>
<path d="M0 0 C1.64826111 2.96687001 2.44271087 5.65626525 3 9 C1.35 9.66 -0.3 10.32 -2 11 C-2.25 3.375 -2.25 3.375 0 0 Z " fill="#E41642" transform="translate(45,114)"/>
<path d="M0 0 C0.598125 0.20625 1.19625 0.4125 1.8125 0.625 C1.1525 2.605 0.4925 4.585 -0.1875 6.625 C-0.5175 5.635 -0.8475 4.645 -1.1875 3.625 C-1.8475 3.625 -2.5075 3.625 -3.1875 3.625 C-3.1875 5.935 -3.1875 8.245 -3.1875 10.625 C-3.8475 10.295 -4.5075 9.965 -5.1875 9.625 C-5.48046875 3.5703125 -5.48046875 3.5703125 -5.1875 1.625 C-2.1875 -0.375 -2.1875 -0.375 0 0 Z " fill="#D03056" transform="translate(111.1875,102.375)"/>
<path d="M0 0 C3.3 0 6.6 0 10 0 C7.65117776 2.34882224 5.72876333 3.03503024 2.625 4.1875 C1.66851562 4.55230469 0.71203125 4.91710937 -0.2734375 5.29296875 C-3.05285296 6.01370542 -4.35108103 5.98549829 -7 5 C-4.35261084 3.5393715 -3.10551666 3 0 3 C0 2.01 0 1.02 0 0 Z " fill="#FBE2EB" transform="translate(12,0)"/>
<path d="M0 0 C1.670625 0.061875 1.670625 0.061875 3.375 0.125 C3.705 1.445 4.035 2.765 4.375 4.125 C1.735 4.455 -0.905 4.785 -3.625 5.125 C-3.625 4.465 -3.625 3.805 -3.625 3.125 C-4.285 2.795 -4.945 2.465 -5.625 2.125 C-3.625 0.125 -3.625 0.125 0 0 Z " fill="#FDD8E8" transform="translate(257.625,96.875)"/>
<path d="M0 0 C2 1 2 1 3.0625 3.875 C4.37449314 8.82338359 4.65020883 13.90961801 5 19 C2.48768622 16.48768622 2.21338287 14.62148234 1.375 11.1875 C1.11460938 10.14980469 0.85421875 9.11210937 0.5859375 8.04296875 C0.05085782 5.26412163 -0.11460481 2.81823638 0 0 Z " fill="#FDD9E3" transform="translate(47,147)"/>
<path d="M0 0 C0.33 0 0.66 0 1 0 C1.66 3.3 2.32 6.6 3 10 C2.34 10 1.68 10 1 10 C0.67 10.99 0.34 11.98 0 13 C-2.64 13 -5.28 13 -8 13 C-8 12.01 -8 11.02 -8 10 C-5.69 10.66 -3.38 11.32 -1 12 C-1 10.68 -1 9.36 -1 8 C-1.99 7.67 -2.98 7.34 -4 7 C-3.01 6.67 -2.02 6.34 -1 6 C-0.67 4.02 -0.34 2.04 0 0 Z " fill="#F8CED9" transform="translate(233,102)"/>
<path d="M0 0 C2 3 2 3 1.625 5.6875 C1.41875 6.450625 1.2125 7.21375 1 8 C-1.9375 7.625 -1.9375 7.625 -5 7 C-5.33 6.34 -5.66 5.68 -6 5 C-5.38125 4.731875 -4.7625 4.46375 -4.125 4.1875 C-1.7004767 3.04443152 -1.7004767 3.04443152 0 0 Z " fill="#F0E0E6" transform="translate(112,143)"/>
<path d="M0 0 C-0.33 1.65 -0.66 3.3 -1 5 C-6.95703125 6.07421875 -6.95703125 6.07421875 -9 6 C-9.99 5.01 -10.98 4.02 -12 3 C-9.03 3.33 -6.06 3.66 -3 4 C-3 3.34 -3 2.68 -3 2 C-4.32 1.67 -5.64 1.34 -7 1 C-2.25 0 -2.25 0 0 0 Z " fill="#B93653" transform="translate(102,109)"/>
<path d="M0 0 C0.33 0 0.66 0 1 0 C1.08097324 2.27024968 1.13917704 4.54132075 1.1875 6.8125 C1.22230469 8.07707031 1.25710937 9.34164062 1.29296875 10.64453125 C1 14 1 14 -0.38671875 15.94921875 C-2 17 -2 17 -4 17 C-4.33 15.68 -4.66 14.36 -5 13 C-4.35546875 12.78601563 -3.7109375 12.57203125 -3.046875 12.3515625 C-0.72160885 11.1526477 -0.72160885 11.1526477 -0.390625 8.3984375 C-0.34421875 7.40070313 -0.2978125 6.40296875 -0.25 5.375 C-0.19328125 4.37210937 -0.1365625 3.36921875 -0.078125 2.3359375 C-0.05234375 1.56507812 -0.0265625 0.79421875 0 0 Z " fill="#BE2949" transform="translate(192,97)"/>
<path d="M0 0 C1.67542976 0.28604898 3.34385343 0.61781233 5 1 C5 2.32 5 3.64 5 5 C2.69 5 0.38 5 -2 5 C-1.125 1.125 -1.125 1.125 0 0 Z " fill="#FEDCEC" transform="translate(93,97)"/>
<path d="M0 0 C0.66 0 1.32 0 2 0 C3.14229879 3.42689636 2.90861076 5.61102218 2.5625 9.1875 C2.40974609 10.81751953 2.40974609 10.81751953 2.25390625 12.48046875 C2.17011719 13.31191406 2.08632812 14.14335938 2 15 C1.34 15 0.68 15 0 15 C0 10.05 0 5.1 0 0 Z " fill="#DF1A48" transform="translate(211,97)"/>
<path d="M0 0 C1.65 0.33 3.3 0.66 5 1 C5 1.99 5 2.98 5 4 C4.34 4 3.68 4 3 4 C3 4.99 3 5.98 3 7 C1.68 7 0.36 7 -1 7 C-0.67 4.69 -0.34 2.38 0 0 Z " fill="#FBF6F8" transform="translate(106,149)"/>
<path d="M0 0 C0.33 1.32 0.66 2.64 1 4 C-0.625 5.5625 -0.625 5.5625 -3 7 C-6.25 6.6875 -6.25 6.6875 -9 6 C-9 5.67 -9 5.34 -9 5 C-7.35 5 -5.7 5 -4 5 C-4 4.34 -4 3.68 -4 3 C-3.34 3 -2.68 3 -2 3 C-2 2.34 -2 1.68 -2 1 C-1.34 0.67 -0.68 0.34 0 0 Z " fill="#BF3756" transform="translate(248,108)"/>
<path d="M0 0 C1.65 0 3.3 0 5 0 C4.67 1.65 4.34 3.3 4 5 C2.35 5 0.7 5 -1 5 C-0.67 3.35 -0.34 1.7 0 0 Z " fill="#FED4E5" transform="translate(184,105)"/>
<path d="M0 0 C0.33 0 0.66 0 1 0 C1.33 2.97 1.66 5.94 2 9 C2.66 9 3.32 9 4 9 C4 9.99 4 10.98 4 12 C3.34 12 2.68 12 2 12 C2.33 13.32 2.66 14.64 3 16 C2.34 16 1.68 16 1 16 C-0.06723961 12.53777385 -0.10173486 9.35960734 -0.0625 5.75 C-0.04896484 4.13351563 -0.04896484 4.13351563 -0.03515625 2.484375 C-0.02355469 1.66453125 -0.01195312 0.8446875 0 0 Z " fill="#FDD9E5" transform="translate(40,86)"/>
<path d="M0 0 C0.33 0.99 0.66 1.98 1 3 C-3.46236469 4.80619523 -6.31034294 5.11658501 -11 4 C-11 3.34 -11 2.68 -11 2 C-10.06027344 1.90912109 -10.06027344 1.90912109 -9.1015625 1.81640625 C-7.87566406 1.69072266 -7.87566406 1.69072266 -6.625 1.5625 C-5.81289062 1.48128906 -5.00078125 1.40007812 -4.1640625 1.31640625 C-1.95727195 1.10909886 -1.95727195 1.10909886 0 0 Z " fill="#C7375A" transform="translate(71,175)"/>
<path d="M0 0 C0.77085938 0.0721875 1.54171875 0.144375 2.3359375 0.21875 C3.33882813 0.3115625 4.34171875 0.404375 5.375 0.5 C6.87160156 0.63921875 6.87160156 0.63921875 8.3984375 0.78125 C10.89703736 1.02792947 10.89703736 1.02792947 13 1 C13 1.66 13 2.32 13 3 C9.59877986 4.85521098 8.1431263 5.02623982 4.25 4.3125 C3.1775 3.879375 2.105 3.44625 1 3 C0.67 2.01 0.34 1.02 0 0 Z " fill="#FCEAF1" transform="translate(105,113)"/>
<path d="M0 0 C1.65 0 3.3 0 5 0 C4.67 1.65 4.34 3.3 4 5 C2.35 4.67 0.7 4.34 -1 4 C-0.67 2.68 -0.34 1.36 0 0 Z " fill="#FEDFE2" transform="translate(257,105)"/>
<path d="M0 0 C0.66 0.33 1.32 0.66 2 1 C2.125 4.375 2.125 4.375 2 8 C1.34 8.66 0.68 9.32 0 10 C-2.21538462 4.58461538 -2.21538462 4.58461538 -1.125 1.625 C-0.75375 1.08875 -0.3825 0.5525 0 0 Z " fill="#D9173E" transform="translate(190,100)"/>
<path d="M0 0 C0 0.99 0 1.98 0 3 C-0.33 2.67 -0.66 2.34 -1 2 C-2.99958364 1.95919217 -5.00045254 1.95745644 -7 2 C-7.66 3.32 -8.32 4.64 -9 6 C-9.66 6 -10.32 6 -11 6 C-10.63680051 3.3668037 -10.14494976 2.15568678 -8.3125 0.1875 C-5.20761963 -1.40689803 -3.31383374 -0.82845843 0 0 Z " fill="#C03B5B" transform="translate(117,93)"/>
<path d="M0 0 C0.33 0 0.66 0 1 0 C1 1.98 1 3.96 1 6 C2.65 6.33 4.3 6.66 6 7 C6 7.66 6 8.32 6 9 C4.35 9.66 2.7 10.32 1 11 C-0.20272819 8.59454362 -0.10071472 7.05003047 -0.0625 4.375 C-0.05347656 3.55773437 -0.04445312 2.74046875 -0.03515625 1.8984375 C-0.02355469 1.27195312 -0.01195312 0.64546875 0 0 Z " fill="#C1284B" transform="translate(234,100)"/>
<path d="M0 0 C0.33 0 0.66 0 1 0 C1 3.96 1 7.92 1 12 C0.01 12.495 0.01 12.495 -1 13 C-1.2236337 11.58566794 -1.42826476 10.16832382 -1.625 8.75 C-1.74101563 7.96109375 -1.85703125 7.1721875 -1.9765625 6.359375 C-2.00319395 3.67847541 -1.36592084 2.27305911 0 0 Z " fill="#D41C3A" transform="translate(119,96)"/>
<path d="M0 0 C3.69230769 0.69230769 3.69230769 0.69230769 5 2 C5.23653523 4.52596259 5.42173692 7.03107207 5.5625 9.5625 C5.60568359 10.27341797 5.64886719 10.98433594 5.69335938 11.71679688 C5.79971777 13.47761912 5.90038846 15.2387832 6 17 C5.34 17 4.68 17 4 17 C3.96132812 15.51886719 3.96132812 15.51886719 3.921875 14.0078125 C3.86515625 12.72648437 3.8084375 11.44515625 3.75 10.125 C3.70359375 8.84882812 3.6571875 7.57265625 3.609375 6.2578125 C3.37444944 2.90811895 3.37444944 2.90811895 0.953125 1.5546875 C0.30859375 1.37164062 -0.3359375 1.18859375 -1 1 C-0.67 0.67 -0.34 0.34 0 0 Z " fill="#FEDFE7" transform="translate(73,97)"/>
<path d="M0 0 C1.98 0 3.96 0 6 0 C7.23104155 3.68400584 6.90767252 6.91474976 6.5625 10.75 C6.46066406 11.92046875 6.35882813 13.0909375 6.25390625 14.296875 C6.17011719 15.18890625 6.08632812 16.0809375 6 17 C5.67 17 5.34 17 5 17 C4.67 11.72 4.34 6.44 4 1 C2.68 0.67 1.36 0.34 0 0 Z " fill="#FFECF1" transform="translate(125,84)"/>
<path d="M0 0 C3.375 0.875 3.375 0.875 5.375 3.875 C4.385 4.37 4.385 4.37 3.375 4.875 C3.375 4.215 3.375 3.555 3.375 2.875 C-0.255 2.875 -3.885 2.875 -7.625 2.875 C-3.625 -0.125 -3.625 -0.125 0 0 Z " fill="#FED9DE" transform="translate(15.625,78.125)"/>
<path d="M0 0 C2.67901932 2.31881505 3.66204403 4.31814468 4.6875 7.6875 C4.93886719 8.49574219 5.19023438 9.30398437 5.44921875 10.13671875 C5.63097656 10.75160156 5.81273437 11.36648437 6 12 C4.078125 11.3203125 4.078125 11.3203125 2 10 C1.171875 7.6171875 1.171875 7.6171875 0.75 4.875 C0.60046875 3.96492187 0.4509375 3.05484375 0.296875 2.1171875 C0.19890625 1.41851562 0.1009375 0.71984375 0 0 Z " fill="#FBE1E7" transform="translate(38,142)"/>
<path d="M0 0 C0.66 0.33 1.32 0.66 2 1 C1.15115234 1.56267578 1.15115234 1.56267578 0.28515625 2.13671875 C-4.35772851 5.19363427 -4.35772851 5.19363427 -7 9.875 C-7 10.57625 -7 11.2775 -7 12 C-7.33 12 -7.66 12 -8 12 C-8.33 10.02 -8.66 8.04 -9 6 C-3.30379747 1.25316456 -3.30379747 1.25316456 0 0 Z " fill="#AE556F" transform="translate(101,134)"/>
<path d="M0 0 C0.99 0.495 0.99 0.495 2 1 C2 1.66 2 2.32 2 3 C2.8971875 2.505 2.8971875 2.505 3.8125 2 C6 1 6 1 9 1 C8.67 2.32 8.34 3.64 8 5 C6.02 5 4.04 5 2 5 C1.34 3.35 0.68 1.7 0 0 Z " fill="#B92E53" transform="translate(125,109)"/>
<path d="M0 0 C2.5 1.1875 2.5 1.1875 5 3 C5.3125 5.6875 5.3125 5.6875 5 8 C3.68 8 2.36 8 1 8 C0.67 5.36 0.34 2.72 0 0 Z " fill="#DC395D" transform="translate(234,98)"/>
<path d="M0 0 C0.99 0.33 1.98 0.66 3 1 C3 2.65 3 4.3 3 6 C1.35 5.67 -0.3 5.34 -2 5 C-1.125 1.125 -1.125 1.125 0 0 Z " fill="#B62A50" transform="translate(225,85)"/>
<path d="M0 0 C2.64 0 5.28 0 8 0 C8 0.66 8 1.32 8 2 C5.09399739 3.25664978 3.20395416 4 0 4 C0 2.68 0 1.36 0 0 Z " fill="#C93F61" transform="translate(0,6)"/>
<path d="M0 0 C3.58237455 4.67266246 4.11073636 7.02023637 4 13 C1.12420019 8.68630028 0 5.19265239 0 0 Z " fill="#C72F55" transform="translate(45,110)"/>
<path d="M0 0 C4.455 0.99 4.455 0.99 9 2 C9.33 3.32 9.66 4.64 10 6 C8.02 6.33 6.04 6.66 4 7 C4.66 5.35 5.32 3.7 6 2 C4.35 2 2.7 2 1 2 C0.67 1.34 0.34 0.68 0 0 Z " fill="#FACBD9" transform="translate(141,108)"/>
<path d="M0 0 C1.32 0 2.64 0 4 0 C4 1.65 4 3.3 4 5 C2.35 5 0.7 5 -1 5 C-0.67 3.35 -0.34 1.7 0 0 Z " fill="#FEE0E7" transform="translate(112,105)"/>
<path d="M0 0 C0.33 0 0.66 0 1 0 C1.33 3.3 1.66 6.6 2 10 C0.02 10.99 0.02 10.99 -2 12 C-1.34 8.04 -0.68 4.08 0 0 Z " fill="#F7CEDE" transform="translate(91,142)"/>
<path d="M0 0 C2.05078125 0.03255208 4.1015625 0.06510417 6.15234375 0.09765625 C6.15234375 0.42765625 6.15234375 0.75765625 6.15234375 1.09765625 C3.84234375 1.42765625 1.53234375 1.75765625 -0.84765625 2.09765625 C0.80234375 2.42765625 2.45234375 2.75765625 4.15234375 3.09765625 C4.15234375 3.42765625 4.15234375 3.75765625 4.15234375 4.09765625 C1.51234375 4.75765625 -1.12765625 5.41765625 -3.84765625 6.09765625 C-2.77957394 0.14691194 -2.77957394 0.14691194 0 0 Z " fill="#B12A4B" transform="translate(182.84765625,92.90234375)"/>
<path d="M0 0 C2.2024745 3.30371174 2.5345879 4.16878669 2 8 C0 11.3125 0 11.3125 -2 14 C-2.33 13.34 -2.66 12.68 -3 12 C-2.33333333 10.33333333 -1.66666667 8.66666667 -1 7 C-0.6186926 4.67402489 -0.27539746 2.34087842 0 0 Z " fill="#FCE0ED" transform="translate(49,116)"/>
<path d="M0 0 C1.32 0.99 2.64 1.98 4 3 C4.33 2.34 4.66 1.68 5 1 C5.99 1 6.98 1 8 1 C8 2.32 8 3.64 8 5 C5.125 5.125 5.125 5.125 2 5 C1.34 4.34 0.68 3.68 0 3 C0 2.01 0 1.02 0 0 Z " fill="#BB2F52" transform="translate(224,109)"/>
<path d="M0 0 C0.66 1.32 1.32 2.64 2 4 C1.34 4 0.68 4 0 4 C-0.33 5.65 -0.66 7.3 -1 9 C-1.66 9 -2.32 9 -3 9 C-3.1875 5.625 -3.1875 5.625 -3 2 C-2.01 1.34 -1.02 0.68 0 0 Z " fill="#D43B58" transform="translate(89,98)"/>
<path d="M0 0 C1.5 1.375 1.5 1.375 3 3 C3 3.66 3 4.32 3 5 C3.99 5.33 4.98 5.66 6 6 C5 7 5 7 2.4375 7.0625 C1.2309375 7.0315625 1.2309375 7.0315625 0 7 C0 4.69 0 2.38 0 0 Z " fill="#D9193D" transform="translate(199,92)"/>
<path d="M0 0 C5.54959786 -0.36997319 5.54959786 -0.36997319 7.75 1.4375 C8.36875 2.2109375 8.36875 2.2109375 9 3 C9.66 3.33 10.32 3.66 11 4 C10.67 4.99 10.34 5.98 10 7 C9.01 7 8.02 7 7 7 C6.773125 6.195625 6.54625 5.39125 6.3125 4.5625 C5.879375 3.716875 5.44625 2.87125 5 2 C2.45224694 1.10613836 2.45224694 1.10613836 0 1 C0 0.67 0 0.34 0 0 Z " fill="#FCDDE4" transform="translate(242,92)"/>
<path d="M0 0 C6.875 0.875 6.875 0.875 8 2 C8.04092937 4.33297433 8.04241723 6.66705225 8 9 C7 7 6 5 5 3 C3.35636866 2.27840576 1.68949614 1.60648579 0 1 C0 0.67 0 0.34 0 0 Z " fill="#FED5DE" transform="translate(23,83)"/>
<path d="M0 0 C3.2542015 2.83430453 4.5206753 4.68607774 5 9 C4.01 9.33 3.02 9.66 2 10 C1.34 6.7 0.68 3.4 0 0 Z " fill="#C73651" transform="translate(35,75)"/>
<path d="M0 0 C2.475 0.495 2.475 0.495 5 1 C5.33 2.65 5.66 4.3 6 6 C4.35 6 2.7 6 1 6 C1.66 5.67 2.32 5.34 3 5 C2.2575 4.319375 2.2575 4.319375 1.5 3.625 C0 2 0 2 0 0 Z " fill="#C53B59" transform="translate(256,109)"/>
<path d="M0 0 C0.99 0.33 1.98 0.66 3 1 C2.67 1.66 2.34 2.32 2 3 C1.77049681 5.204364 1.58924067 7.41392173 1.4375 9.625 C1.35371094 10.81351563 1.26992187 12.00203125 1.18359375 13.2265625 C1.12300781 14.14179687 1.06242188 15.05703125 1 16 C0.67 16 0.34 16 0 16 C0 10.72 0 5.44 0 0 Z " fill="#C02448" transform="translate(224,93)"/>
<path d="M0 0 C1.921875 0.7109375 1.921875 0.7109375 4 2 C4.828125 4.1640625 4.828125 4.1640625 5.25 6.625 C5.39953125 7.44226563 5.5490625 8.25953125 5.703125 9.1015625 C5.80109375 9.72804688 5.8990625 10.35453125 6 11 C3.13546142 7.58983503 1.65296434 4.09305456 0 0 Z " fill="#FDD3DC" transform="translate(42,103)"/>
<path d="M0 0 C2.475 0.495 2.475 0.495 5 1 C5.33 2.32 5.66 3.64 6 5 C4.35 5 2.7 5 1 5 C1.66 4.67 2.32 4.34 3 4 C3 3.34 3 2.68 3 2 C2.01 2 1.02 2 0 2 C0 1.34 0 0.68 0 0 Z " fill="#C3385F" transform="translate(202,85)"/>
<path d="M0 0 C0.99 0.33 1.98 0.66 3 1 C3 2.65 3 4.3 3 6 C2.34 6 1.68 6 1 6 C1 5.34 1 4.68 1 4 C0.01 4.33 -0.98 4.66 -2 5 C-2.33 4.34 -2.66 3.68 -3 3 C-2.01 2.01 -1.02 1.02 0 0 Z " fill="#FEF4F9" transform="translate(102,104)"/>
<path d="M0 0 C0 0.66 0 1.32 0 2 C-1.65 2 -3.3 2 -5 2 C-5.33 2.66 -5.66 3.32 -6 4 C-6.99 3.34 -7.98 2.68 -9 2 C-5.5647952 -0.29013653 -4.014669 -0.17842973 0 0 Z " fill="#C83359" transform="translate(262,101)"/>
<path d="M0 0 C-0.33 1.65 -0.66 3.3 -1 5 C-5.875 2.25 -5.875 2.25 -7 0 C-2.25 -1.125 -2.25 -1.125 0 0 Z " fill="#F8E5E5" transform="translate(106,93)"/>
<path d="M0 0 C1.67542976 0.28604898 3.34385343 0.61781233 5 1 C4.67 1.99 4.34 2.98 4 4 C2.68 4 1.36 4 0 4 C-0.33 3.01 -0.66 2.02 -1 1 C-0.67 0.67 -0.34 0.34 0 0 Z " fill="#E42A5B" transform="translate(242,94)"/>
<path d="M0 0 C0.66 0.99 1.32 1.98 2 3 C1.01 4.32 0.02 5.64 -1 7 C-1.99 6.67 -2.98 6.34 -4 6 C-2.68 4.02 -1.36 2.04 0 0 Z " fill="#FBD9E3" transform="translate(82,167)"/>
<path d="M0 0 C0 0.99 0 1.98 0 3 C-0.99 3.33 -1.98 3.66 -3 4 C-3.73323796 6.01508358 -3.73323796 6.01508358 -4 8 C-4.66 7.67 -5.32 7.34 -6 7 C-4.60667426 3.63279613 -3.0210714 2.0140476 0 0 Z " fill="#F9D2E0" transform="translate(94,152)"/>
<path d="M0 0 C1.98 0.495 1.98 0.495 4 1 C4 2.66666667 4 4.33333333 4 6 C2 6 2 6 0.375 4.5 C-0.07875 4.005 -0.5325 3.51 -1 3 C-0.67 2.01 -0.34 1.02 0 0 Z " fill="#D33C5A" transform="translate(179,103)"/>
<path d="M0 0 C3.375 -0.1875 3.375 -0.1875 7 0 C9 3 9 3 8.625 5.1875 C8.41875 5.785625 8.2125 6.38375 8 7 C6 4 6 4 6 2 C3.03 1.505 3.03 1.505 0 1 C0 0.67 0 0.34 0 0 Z " fill="#AC3D58" transform="translate(240,93)"/>
<path d="M0 0 C2.475 0.495 2.475 0.495 5 1 C5 1.99 5 2.98 5 4 C3.35 4 1.7 4 0 4 C0 2.68 0 1.36 0 0 Z " fill="#FEF3F2" transform="translate(202,91)"/>
<path d="M0 0 C1.65 0 3.3 0 5 0 C4.67 0.66 4.34 1.32 4 2 C3.01 2.33 2.02 2.66 1 3 C0.67 3.99 0.34 4.98 0 6 C-0.66 6 -1.32 6 -2 6 C-2.33 5.01 -2.66 4.02 -3 3 C-2.34 3 -1.68 3 -1 3 C-0.67 2.01 -0.34 1.02 0 0 Z " fill="#F9DEE8" transform="translate(223,84)"/>
<path d="M0 0 C1.98 0 3.96 0 6 0 C4.6875 2 4.6875 2 3 4 C2.01 4 1.02 4 0 4 C0 2.68 0 1.36 0 0 Z " fill="#ED1140" transform="translate(24,77)"/>
<path d="M0 0 C0.99 0.33 1.98 0.66 3 1 C1.37660195 2.70884005 -0.29319053 4.37446717 -2 6 C-2.66 6 -3.32 6 -4 6 C-4 5.01 -4 4.02 -4 3 C-3.01 3 -2.02 3 -1 3 C-0.67 2.01 -0.34 1.02 0 0 Z " fill="#FED8E2" transform="translate(75,169)"/>
<path d="M0 0 C0.99 0.33 1.98 0.66 3 1 C2.67 2.98 2.34 4.96 2 7 C0.4375 5.75 0.4375 5.75 -1 4 C-0.6875 1.8125 -0.6875 1.8125 0 0 Z " fill="#FAF7F4" transform="translate(89,140)"/>
<path d="M0 0 C0.99 0 1.98 0 3 0 C2.67 2.31 2.34 4.62 2 7 C0.4375 5.75 0.4375 5.75 -1 4 C-0.6875 1.8125 -0.6875 1.8125 0 0 Z " fill="#C21B3C" transform="translate(88,105)"/>
<path d="M0 0 C1.65 0 3.3 0 5 0 C5.33 0.66 5.66 1.32 6 2 C4.35 3.32 2.7 4.64 1 6 C0.67 4.02 0.34 2.04 0 0 Z " fill="#FDE5E8" transform="translate(196,84)"/>
<path d="M0 0 C0.33 0.66 0.66 1.32 1 2 C-2.3 2.33 -5.6 2.66 -9 3 C-9.33 2.34 -9.66 1.68 -10 1 C-6.61981469 -0.04005702 -3.5219721 -0.08004482 0 0 Z " fill="#FDDCE6" transform="translate(33,72)"/>
</svg>
